<svg id="Capa_1" enable-background="new 0 0 501 501" height="512" viewBox="0 0 501 501" width="512" xmlns="http://www.w3.org/2000/svg"><g><path d="m5.5 256c0-133.795 107.248-242.541 240.465-244.959 137.417-2.494 249.413 107.298 249.535 244.737.066 74.877-33.458 141.927-86.334 186.91-2.318 1.972-5.589 2.419-8.323 1.082-44.063-21.546-95.459-33.91-150.343-33.91s-106.28 12.364-150.343 33.91c-2.733 1.337-6.003.892-8.32-1.079-52.826-44.939-86.337-111.902-86.337-186.691z" fill="#0573cd"/><path d="m300.5 390c-107.696 0-195-87.305-195-195 0-84.452 53.687-156.365 128.792-183.472 5.358-.35 10.762-.528 16.208-.528 124.376 0 227.105 92.68 242.896 212.745-13.898 94.066-94.967 166.255-192.896 166.255z" fill="#528ed7"/><path d="m423.377 271.251-6.941-20.544c-.399-1.182-1.327-2.11-2.509-2.509l-20.544-6.941c-3.626-1.225-3.626-6.354 0-7.579l20.544-6.941c1.182-.399 2.11-1.327 2.509-2.509l6.941-20.544c1.225-3.626 6.354-3.626 7.579 0l6.941 20.544c.399 1.182 1.327 2.11 2.509 2.509l20.544 6.941c3.626 1.225 3.626 6.354 0 7.579l-20.544 6.941c-1.182.399-2.11 1.327-2.509 2.509l-6.941 20.544c-1.225 3.626-6.354 3.626-7.579 0z" fill="#fdbf43"/><path d="m410.5 370v71.545c-42.926 37.049-98.847 59.455-160 59.455s-117.074-22.406-160-59.455v-71.545c0-38.66 31.34-70 70-70h180c38.66 0 70 31.34 70 70z" fill="#f7e6b0"/><path d="m410.5 370v71.545c-42.926 37.049-98.847 59.455-160 59.455-47.757 0-92.322-13.664-130-37.296v-93.704c0-38.66 31.34-70 70-70h150c38.66 0 70 31.34 70 70z" fill="#fff5f5"/><path d="m355.5 410v67.423c-6.514 3.094-13.186 5.91-20 8.431v-75.854c0-5.523 4.477-10 10-10s10 4.477 10 10zm-200-10c-5.523 0-10 4.477-10 10v61.423c6.514 3.094 13.186 5.91 20 8.431v-69.854c0-5.523-4.477-10-10-10z" fill="#f7e6b0"/><path d="m376.5 120v10c0 44.183-35.817 80-80 80h-92c-44.183 0-80-35.817-80-80v-80c0-27.614 22.386-50 50-50h82c66.274 0 120 53.726 120 120z" fill="#954d3b"/><path d="m250.5 210h-46c-44.183 0-80-35.817-80-80v-80c0-27.614 22.386-50 50-50h46c-27.614 0-50 22.386-50 50v80c0 44.183 35.817 80 80 80z" fill="#7d402d"/><path d="m140.5 210c-13.807 0-25-11.193-25-25v-10c0-13.807 11.193-25 25-25 13.807 0 25 11.193 25 25v10c0 13.807-11.193 25-25 25z" fill="#efcfc8"/><path d="m130.5 170v20c0 8.178 3.927 15.439 9.998 20-13.806-.001-24.998-11.194-24.998-25v-10c0-13.806 11.192-24.999 24.998-25-6.071 4.561-9.998 11.822-9.998 20zm230-20v-20c0-60.751-49.249-110-110-110-60.751 0-110 49.249-110 110v40c0 50.351 33.83 92.8 80 105.859v34.141c0 16.569 13.431 30 30 30 16.569 0 30-13.431 30-30v-34.141c33.586-9.499 60.641-34.551 72.895-66.883 2.252.666 4.637 1.024 7.105 1.024 13.807 0 25-11.193 25-25v-10c0-13.807-11.193-25-25-25z" fill="#eac0b5"/><path d="m360.5 130v40c0 50.792-34.425 93.543-81.216 106.195-9.023 2.44-18.545 2.44-27.568 0-46.791-12.652-81.216-55.403-81.216-106.195v-40c0-55.663 41.345-101.669 95-108.985 53.655 7.316 95 53.322 95 108.985z" fill="#efcfc8"/><path d="m218 137.5c0 8.284-6.716 15-15 15s-15-6.716-15-15 6.716-15 15-15 15 6.716 15 15zm80-15c-8.284 0-15 6.716-15 15s6.716 15 15 15 15-6.716 15-15-6.716-15-15-15z" fill="#533022"/><path d="m220.5 130c0 4.142-3.358 7.5-7.5 7.5s-7.5-3.358-7.5-7.5 3.358-7.5 7.5-7.5 7.5 3.358 7.5 7.5zm87.5-7.5c-4.142 0-7.5 3.358-7.5 7.5s3.358 7.5 7.5 7.5 7.5-3.358 7.5-7.5-3.358-7.5-7.5-7.5z" fill="#fff5f5"/><path d="m164.5 360h172v125.481c-26.758 10.032-55.738 15.519-86 15.519s-59.242-5.487-86-15.519z" fill="#8f4d24"/><path d="m198.5 300v81.455c0 9.389-7.611 17-17 17-9.389 0-17-7.611-17-17v-81.455zm138 81.455v-81.455h-34v81.455c0 9.389 7.611 17 17 17 9.389 0 17-7.611 17-17zm-170 68.545h170v30h-170z" fill="#c76d36"/><path d="m191.5 380c0 5.523-4.477 10-10 10s-10-4.477-10-10 4.477-10 10-10 10 4.477 10 10zm128-10c-5.523 0-10 4.477-10 10s4.477 10 10 10 10-4.477 10-10-4.477-10-10-10z" fill="#f5c02c"/><path d="m303.554 401.82c-.469-1.288-1.893-1.952-3.181-1.483l-66.381 24.161c-.193-1.981-.636-3.97-1.348-5.926-4.556-12.518-18.398-18.973-30.916-14.416-12.518 4.556-18.973 18.398-14.416 30.916 4.556 12.518 18.398 18.973 30.916 14.416l75.997-27.661c8.101-2.949 12.278-11.906 9.329-20.007zm-88.138 37.645c-6.258 2.278-13.177-.949-15.454-7.206-2.278-6.258.949-13.177 7.207-15.454 6.258-2.278 13.177.949 15.454 7.206s-.949 13.176-7.207 15.454z" fill="#968dca"/><path d="m272.156 370.946c-8.101-2.948-17.058 1.228-20.006 9.329l-27.661 75.997c-4.556 12.518 1.898 26.36 14.417 30.916 12.518 4.556 26.36-1.898 30.916-14.416s-1.898-26.36-14.417-30.916c-1.957-.712-3.946-1.155-5.926-1.348l24.161-66.381c.468-1.289-.196-2.713-1.484-3.181zm-14.722 87.876c2.278 6.258-.949 13.177-7.206 15.454-6.258 2.278-13.177-.949-15.454-7.206-2.278-6.258.949-13.177 7.206-15.454 6.257-2.278 13.176.948 15.454 7.206zm14.335-48.074 22.192-8.077-8.077 22.191-22.191 8.077z" fill="#c1bbdf"/><path d="m246.873 434.637c-2.008 2.008-5.264 2.008-7.273 0s-2.008-5.264 0-7.273 5.264-2.008 7.273 0c2.009 2.009 2.009 5.265 0 7.273z" fill="#968dca"/><path d="m244.5 457v14c0 13.349-8.719 24.661-20.772 28.554-7.86-.854-15.609-2.08-23.228-3.66-4.912-1.018-16-7.604-16-9.894v-44c0-8.284 6.716-15 15-15h15c16.569 0 30 13.431 30 30z" fill="#e1a595"/><path d="m184.5 455v-13c0-8.284 6.716-15 15-15h15c13.616 0 25.113 9.071 28.778 21.5-3.665 12.429-15.162 21.5-28.778 21.5h-15c-8.284 0-15-6.716-15-15z" fill="#eac0b5"/><path d="m124.5 427h76v68.894c-27.267-5.654-52.875-15.84-76-29.734z" fill="#fff5f5"/><path d="m131.124 470h69.376v25.894c-24.689-5.12-48.018-13.955-69.376-25.894z" fill="#f7e6b0"/><path d="m269.5 5v35c0 33.137-26.863 60-60 60h-35c-27.614 0-50-22.386-50-50 0-27.614 22.386-50 50-50h90c2.761 0 5 2.239 5 5z" fill="#7d402d"/><path d="m376.5 5v35c0 33.137-26.863 60-60 60h-109.5c-16.569 0-30-13.431-30-30v-20c0-27.614 22.386-50 50-50h144.5c2.761 0 5 2.239 5 5z" fill="#954d3b"/><path d="m278.007 176.827h-55.014c-19.571 0-35.493 15.922-35.493 35.493 0 47.68 11 78.013 63 89.643 53.333-11.63 63-40.963 63-89.643 0-19.571-15.922-35.493-35.493-35.493zm17.742 36.156c-.177 12.047-6.486 23.188-16.406 30.027-3.922 2.704-8.756 5.632-13.995 7.804-2.784 1.154-5.848-.924-5.848-3.938v-21.72c0-4.794-3.617-8.979-8.401-9.289-5.242-.339-9.599 3.812-9.599 8.981v22.127c0 3.007-3.047 5.079-5.832 3.946-5.375-2.186-10.273-5.174-14.21-7.927-9.802-6.855-15.996-17.926-16.205-29.886-.005-.259-.007-.518-.007-.778 0-9.765 7.982-17.755 17.746-17.755h55.014c9.771 0 17.733 7.904 17.746 17.675.002.244 0 .488-.003.733z" fill="#954d3b"/><path d="m250.376 301.936c-51.894-11.651-62.876-41.973-62.876-89.615 0-19.571 15.922-35.493 35.493-35.493h11.79c-1.229 5.572-1.935 11.538-2.021 17.746h-9.77c-9.761 0-17.725 7.888-17.746 17.649-.001.295.002.59.007.884.209 11.96 6.403 23.03 16.205 29.886 3.927 2.746 8.812 5.726 14.172 7.911 2.578 20.035 7.151 37.07 14.746 51.032z" fill="#7d402d"/><path d="m236 176.731c-2.929-2.93-2.929-7.678 0-10.607 2.929-2.928 7.678-2.928 10.606 0 1.042 1.042 2.424 1.616 3.893 1.616s2.851-.574 3.893-1.616c2.929-2.928 7.678-2.928 10.606 0 2.929 2.93 2.929 7.678 0 10.607-3.875 3.875-9.024 6.009-14.5 6.009s-10.623-2.134-14.498-6.009zm48.088 27.966c-2.93-2.929-7.678-2.929-10.607 0-6.145 6.145-14.306 9.529-22.98 9.529s-16.836-3.384-22.981-9.529c-2.929-2.929-7.678-2.929-10.606 0-2.929 2.929-2.929 7.678 0 10.606 9.26 9.26 21.424 13.89 33.587 13.89 12.164 0 24.327-4.63 33.588-13.89 2.928-2.928 2.928-7.678-.001-10.606z" fill="#e1a595"/><path d="m59.719 289.346-5.123-15.164c-.295-.872-.98-1.557-1.852-1.852l-15.164-5.123c-2.677-.904-2.677-4.69 0-5.594l15.164-5.123c.872-.295 1.557-.98 1.852-1.852l5.123-15.164c.904-2.677 4.69-2.677 5.594 0l5.123 15.164c.295.872.98 1.557 1.852 1.852l15.164 5.123c2.677.904 2.677 4.69 0 5.594l-15.164 5.123c-.872.295-1.557.98-1.852 1.852l-5.123 15.164c-.904 2.677-4.69 2.677-5.594 0z" fill="#fff5f5"/></g></svg>